<svg width="1050" height="600" viewBox="0 0 1050 600" fill="none" xmlns="http://www.w3.org/2000/svg">
  <rect width="1050" height="600" fill="#F8FAFC"/>

  <rect x="60" y="60" width="930" height="480" rx="16" fill="white" stroke="#E2E8F0" stroke-width="2"/>

  <g transform="translate(120, 100)">
    <rect x="0" y="0" width="80" height="80" rx="12" stroke="#2563EB" stroke-width="2"/>
    <rect x="35" y="58" width="10" height="22" stroke="#2563EB" stroke-width="2"/>
    <line x1="40" y1="58" x2="40" y2="80" stroke="#2563EB" stroke-width="1" stroke-dasharray="2 2"/>
    <rect x="14" y="26" width="10" height="10" stroke="#2563EB" stroke-width="1"/>
    <rect x="14" y="40" width="10" height="10" stroke="#2563EB" stroke-width="1"/>
    <rect x="25" y="26" width="10" height="10" stroke="#2563EB" stroke-width="1"/>
    <rect x="25" y="40" width="10" height="10" stroke="#2563EB" stroke-width="1"/>
    <rect x="47" y="26" width="10" height="10" stroke="#2563EB" stroke-width="1"/>
    <rect x="47" y="40" width="10" height="10" stroke="#2563EB" stroke-width="1"/>
    <rect x="58" y="26" width="10" height="10" stroke="#2563EB" stroke-width="1"/>
    <rect x="58" y="40" width="10" height="10" stroke="#2563EB" stroke-width="1"/>
    <line x1="5" y1="0" x2="75" y2="0" stroke="#2563EB" stroke-width="1.5"/>
    <line x1="40" y1="-10" x2="40" y2="0" stroke="#2563EB" stroke-width="1"/>
    <polygon points="40,-10 50,-6 40,-2" fill="#2563EB"/>
  </g>

  <text x="120" y="220" font-family="Space Grotesk, sans-serif" font-size="48" font-weight="700" fill="#0F172A">Future Mall</text>
  <text x="120" y="270" font-family="Space Grotesk, sans-serif" font-size="20" fill="#2563EB">Shopping for Tomorrow</text>

  <line x1="120" y1="300" x2="500" y2="300" stroke="#2563EB" stroke-width="2"/>

  <text x="120" y="350" font-family="Inter, sans-serif" font-size="16" fill="#1E293B">Jane Smith</text>
  <text x="120" y="380" font-family="Inter, sans-serif" font-size="14" fill="#64748B">HR Manager</text>
  <text x="120" y="410" font-family="Inter, sans-serif" font-size="14" fill="#64748B">HR Department</text>

  <text x="120" y="470" font-family="Inter, sans-serif" font-size="12" fill="#64748B">jane.smith@futuremall.com  |  +1 (555) 987-6543</text>
</svg>