<svg width="32" height="32" viewBox="0 0 80 80" fill="none" xmlns="http://www.w3.org/2000/svg">
  <rect x="8" y="20" width="64" height="40" stroke="#2563EB" stroke-width="2" rx="3"/>
  <rect x="35" y="38" width="10" height="22" stroke="#2563EB" stroke-width="2"/>
  <line x1="40" y1="38" x2="40" y2="60" stroke="#2563EB" stroke-width="1.5" stroke-dasharray="3 3"/>
  <rect x="14" y="26" width="10" height="10" stroke="#2563EB" stroke-width="1.5"/>
  <rect x="14" y="40" width="10" height="10" stroke="#2563EB" stroke-width="1.5"/>
  <rect x="27" y="26" width="10" height="10" stroke="#2563EB" stroke-width="1.5"/>
  <rect x="27" y="40" width="10" height="10" stroke="#2563EB" stroke-width="1.5"/>
  <rect x="49" y="26" width="10" height="10" stroke="#2563EB" stroke-width="1.5"/>
  <rect x="49" y="40" width="10" height="10" stroke="#2563EB" stroke-width="1.5"/>
  <rect x="61" y="26" width="10" height="10" stroke="#2563EB" stroke-width="1.5"/>
  <rect x="61" y="40" width="10" height="10" stroke="#2563EB" stroke-width="1.5"/>
  <line x1="5" y1="20" x2="75" y2="20" stroke="#2563EB" stroke-width="2"/>
  <line x1="40" y1="10" x2="40" y2="20" stroke="#2563EB" stroke-width="1.5"/>
  <polygon points="40,10 52,14 40,18" fill="#2563EB"/>
</svg>